<svg width="1416" height="527" fill="none" xmlns="http://www.w3.org/2000/svg"><g clip-path="url(#clip0_3_1505)" stroke="#FFF4DB" stroke-width="2"><path d="M714.392 526.487c393.288 0 712.108-117.743 712.108-262.987C1426.5 118.256 1107.68.513 714.392.513 321.103.513 2.28 118.256 2.28 263.5c0 145.244 318.823 262.987 712.112 262.987z"/><path d="M714.392 493.678c344.218 0 623.268-103.054 623.268-230.178S1058.61 33.322 714.392 33.322C370.168 33.322 91.12 136.376 91.12 263.5s279.048 230.178 623.272 230.178z"/><path d="M714.392 460.868c295.158 0 534.428-88.365 534.428-197.368 0-109.004-239.27-197.37-534.428-197.37S179.961 154.497 179.961 263.5s239.273 197.368 534.431 197.368z"/><path d="M714.392 428.059c246.092 0 445.588-73.676 445.588-164.559 0-90.884-199.496-164.56-445.588-164.56-246.093 0-445.591 73.676-445.591 164.56 0 90.883 199.498 164.559 445.591 164.559z"/><path d="M714.392 395.25c197.027 0 356.748-58.986 356.748-131.75 0-72.764-159.721-131.75-356.748-131.75-197.028 0-356.75 58.986-356.75 131.75 0 72.764 159.722 131.75 356.75 131.75z"/><path d="M714.392 362.441c147.962 0 267.909-44.297 267.909-98.941 0-54.643-119.947-98.94-267.909-98.94-147.963 0-267.91 44.297-267.91 98.94 0 54.644 119.947 98.941 267.91 98.941z"/><path d="M714.392 329.632c98.897 0 179.069-29.608 179.069-66.132 0-36.523-80.172-66.131-179.069-66.131-98.897 0-179.069 29.608-179.069 66.131 0 36.524 80.172 66.132 179.069 66.132z"/><path d="M714.392 296.822c49.831 0 90.228-14.919 90.228-33.322 0-18.404-40.397-33.322-90.228-33.322-49.832 0-90.229 14.918-90.229 33.322 0 18.403 40.397 33.322 90.229 33.322z"/></g><defs><clipPath id="clip0_3_1505"><path fill="#fff" transform="translate(.892)" d="M0 0h1427v527H0z"/></clipPath></defs></svg>