<svg width="264" height="30" fill="none" xmlns="http://www.w3.org/2000/svg"><g clip-path="url(#clip0_3_1495)"><path fill-rule="evenodd" clip-rule="evenodd" d="M250.781.572c0 .382-.157.682-.354.682-.197 0-.364-.232-.364-.546 0-.34-1.554-.504-4.328-.45-2.901.055-4.328.273-4.328.682 0 .327-.157.245-.334-.177-.236-.532-.472-.6-.807-.232-.265.286-1.613.6-3.009.682-1.377.095-2.597.313-2.705.504-.099.191-1.554.41-3.246.491-1.682.068-3.305.273-3.6.437-.295.163-1.436.381-2.528.477-1.082.095-2.468.286-3.068.409-1.692.382-4.505.9-6.649 1.227-1.082.164-2.086.41-2.223.546-.148.122-1.181.34-2.302.477a7.344 7.344 0 00-2.4.586c-.196.191-1.121.437-2.046.546-.934.136-2.095.368-2.586.545-.492.177-1.476.41-2.164.505-4.092.613-5.292.845-5.774 1.132-.295.177-.669.381-.816.436-.148.068-.305.177-.354.245-.05.069-.748.178-1.545.246-.786.082-2.419.327-3.609.559-1.181.232-2.803.477-3.6.545-2.587.205-6.098.846-6.452 1.187-.197.177-3.079.272-6.413.204-4.702-.082-6.069.055-6.069.573 0 .545-.069.545-.295 0-.295-.682-5.311-1.077-5.724-.45-.099.136-.561.054-1.033-.218-.551-.3-.935-.273-1.082.095-.167.382-.344.341-.531-.122-.227-.519-.413-.546-.797-.069-.334.41-.62.45-.866.082-.432-.627-1.603-.913-6.442-1.554a65.483 65.483 0 01-6.846-1.364c-1.79-.477-3.737-.955-4.327-1.077a44.805 44.805 0 01-5.233-1.296c-1.092-.327-2.951-.682-4.151-.79a10.276 10.276 0 01-2.734-.519c-.325-.19-.728-.286-.905-.218-.177.055-.728-.04-1.229-.232-.492-.19-1.633-.463-2.518-.6-.895-.136-3.089-.518-4.869-.818l-4.515-.805a5.878 5.878 0 01-1.259-.286c0-.409-2.232-.177-2.429.246-.177.381-.266.354-.276-.096 0-.45-.786-.654-2.616-.654-1.436 0-3.521-.191-4.623-.437-2.213-.477-7.318-.382-7.898.137-.206.19-.374.095-.374-.232 0-.355-.364-.423-.983-.191-.551.204-1.328.313-1.721.245-1.023-.19-.758-.19-8.292.164-7.101.327-7.574.395-10.278 1.254-.895.287-1.87.546-2.164.546-2.754.136-7.692 1.036-13.347 2.454-.492.137-2.017.491-3.394.819-1.367.327-2.783.818-3.147 1.118-.374.3-.679.34-.679.109 0-.232-.157-.055-.354.382-.256.586-.354.613-.354.095 0-.682-1.446-.709-1.81-.013-.098.177-1.082.477-2.164.64-2.104.314-8.832 2.25-9.294 2.66-.148.136-1.17.395-2.263.572-1.101.178-2.478.518-3.068.764-.59.245-1.27.34-1.515.218-.246-.136-.453.041-.453.368 0 .341-.167.464-.373.273-.207-.19-.57-.11-.817.177-.236.273-1.082.655-1.868.818a19.61 19.61 0 00-2.705.764l-1.535.573-1.377.422c-.62.191-1.2.641-1.298 1.01-.098.409-.55.586-1.053.45-.836-.01-1.66.28-2.39.845-.826.586-1.839 1.077-2.252 1.091-.983 0-1.997 1.023-1.377 1.39.256.15.453.505.453.778 0 .314-.237.327-.63.027-.787-.586-2.44-.272-3.462.682-.423.382-1.25.86-1.83 1.064-.58.204-2.085 1.077-3.334 1.936C.313 27.763.165 27.967.578 28.95c.246.573.561 1.05.699 1.05.55 0 2.095-1.255 2.095-1.718 0-.26.167-.314.374-.136.206.19.62.054.905-.287.295-.354.52-.504.52-.327s.857-.177 1.9-.777a63.558 63.558 0 014.78-2.414l4.504-2.046c.885-.409 2.36-.9 3.246-1.09a19.139 19.139 0 003.069-1.05 17.988 17.988 0 012.773-1.023c1.092-.273 1.358-.6 1.476-1.787l.147-1.445.06 1.391.048 1.39 2.617-.722 5.508-1.554c1.574-.45 3.364-.914 3.964-1.037 1.554-.313 4.445-1.173 6.167-1.813 1.495-.56 3.403-1.05 5.37-1.364.59-.095 2.134-.464 3.423-.818 1.288-.355 2.587-.641 2.892-.641.295 0 2.4-.423 4.681-.955 3.846-.913 4.918-1.118 9.384-1.854l3.059-.518c1.82-.3 8.724-.914 11.41-1.01 1.455-.054 1.976-.272 1.848-.736-.098-.368.01-.668.236-.668.217 0 .394.205.394.45 0 .477.059.49 2.616.955 1.22.218 1.712.109 1.712-.355 0-.436.147-.477.452-.136.246.272 3.374.545 6.944.613 7.416.137 8.872.246 9.393.723.207.19.856.273 1.436.164.58-.082 1.426.04 1.869.3.462.245 1.603.572 2.538.709 2.645.409 9.796 1.772 16.681 3.177.492.095 1.869.436 3.069.764 4.672 1.24 6.846 1.54 7.298 1.022.305-.368.452-.34.452.069 0 .327.414.586.905.586.492 0 1.24.3 1.633.682.59.532.787.518 1.033-.068.177-.423.364-.505.442-.178.079.3.866.682 1.761.86l4.328.858c9.836 1.95 29.31 1.664 38.231-.545a51.868 51.868 0 014.141-.818c1.19-.177 3.148-.655 4.328-1.05a52.779 52.779 0 015.567-1.35 231.555 231.555 0 008.321-1.678c1.682-.34 3.148-.763 3.246-.927.098-.163.983-.327 1.987-.368.983-.04 3.747-.49 6.127-1.009 2.381-.518 4.613-.955 4.958-.982.344-.013.629-.327.629-.682.007-.2.047-.395.115-.572.068-.177.163-.33.279-.45.275-.246.334 0 .177.695-.217.996-.128 1.036 1.367.627.875-.231 3.275-.572 5.331-.736 2.055-.164 4.711-.436 5.901-.586 4.466-.6 8.577-.791 15.108-.71l2.852.041 1.348-2.318c.747-1.254 1.328-2.345 1.278-2.413-.206-.341-5.311-.45-5.458-.11-.099.232-.571.314-1.063.178-.491-.137-2.183-.3-3.777-.382-2.183-.123-2.901.014-2.901.545V.572zm-108.872 12c-.354.532-.394.477-.197-.287.128-.531.334-.818.443-.654.118.163 0 .586-.246.954v-.013z" fill="#FFD338"/></g><defs><clipPath id="clip0_3_1495"><path fill="#fff" transform="translate(.392)" d="M0 0h263.599v30H0z"/></clipPath></defs></svg>