<svg width="32" height="32" fill="none" xmlns="http://www.w3.org/2000/svg"><path d="M16 4c-3.26 0-3.66 0-4.94.08-1.28.06-2.16.26-2.92.54-.8.32-1.46.72-2.12 1.4-.68.66-1.08 1.34-1.4 2.12-.28.76-.48 1.64-.54 2.92C4 12.34 4 12.74 4 16c0 3.26 0 3.66.08 4.94.06 1.28.26 2.16.54 2.92.32.8.72 1.46 1.4 2.12.66.68 1.34 1.08 2.12 1.4.76.28 1.64.48 2.92.54 1.28.06 1.68.08 4.94.08 3.26 0 3.66 0 4.94-.08a8.88 8.88 0 002.92-.56c.8-.3 1.46-.7 2.12-1.38.68-.66 1.08-1.32 1.4-2.12.28-.76.48-1.64.54-2.92.08-1.28.08-1.68.08-4.94 0-3.26 0-3.66-.08-4.94a8.88 8.88 0 00-.56-2.92c-.3-.8-.7-1.46-1.38-2.12a5.84 5.84 0 00-2.12-1.4 8.82 8.82 0 00-2.92-.54C19.66 4 19.26 4 16 4zm0 2.16c3.2 0 3.6 0 4.86.08 1.16.04 1.8.24 2.2.4.58.22.98.48 1.4.9.4.42.68.82.9 1.4.16.4.36 1.04.4 2.2.06 1.28.08 1.66.08 4.86s0 3.6-.08 4.86c-.06 1.16-.26 1.8-.4 2.2a3.8 3.8 0 01-.92 1.4c-.4.4-.82.68-1.38.9-.4.16-1.06.36-2.24.4-1.26.06-1.64.08-4.84.08-3.22 0-3.6 0-4.86-.08a6.8 6.8 0 01-2.24-.4 3.72 3.72 0 01-1.4-.92 3.64 3.64 0 01-.88-1.38 6.8 6.8 0 01-.42-2.24c-.04-1.26-.06-1.64-.06-4.84s0-3.6.06-4.86c.06-1.16.26-1.8.4-2.22.22-.58.5-.98.92-1.4.4-.4.8-.68 1.38-.88.4-.18 1.04-.38 2.2-.42 1.3-.06 1.66-.08 4.88-.08l.04.04zm0 3.68a6.16 6.16 0 100 12.32 6.16 6.16 0 000-12.32zM16 20a4 4 0 110-8 4 4 0 010 8zm7.84-10.4a1.44 1.44 0 11-2.88 0 1.44 1.44 0 012.88 0z" fill="#000"/></svg>