<svg width="35" height="39" fill="none" xmlns="http://www.w3.org/2000/svg"><path d="M30.655 31.576c-1.338-.274-2.615-.578-3.68-.79l-1.794-.396.213-1.825c0-.09.03-.182.03-.273 0-.396-.06-.76-.212-1.126l-.426-.973.578-.912c.334-.548.486-1.156.486-1.855 0-.73-.213-1.369-.608-1.916l-.7-.943.457-1.095c.182-.426.274-.882.274-1.338 0-.639 0-2.555-3.011-3.71-.426-.153-1.278-.396-2.86-.487l-3.253-.213 1.55-2.828c1.248-2.25 1.947-4.289 1.947-5.718 0-1.308-.426-2.463-1.399-2.859-3.376-1.46-5.778.821-7.481 3.62-1.369 2.28-3.072 5.2-4.106 7.36-2.22 4.683-5.505 8.059-5.505 12.742 0 4.258 2.86 7.603 8.09 9.367 6.417 2.16 15.997 2.737 20.164 2.737 2.98 0 4.622-1.155 4.622-3.284 0-2.22-2.098-3.011-3.375-3.285z" fill="#FFD338"/><path d="M29.318 29.69c-3.467-.76-6.448-1.398-6.448-1.398.517-.365 1.065-1.125 1.065-2.068a2.472 2.472 0 00-1.034-2.068c.608-.456 1.43-1.278 1.43-2.768 0-1.612-1.096-2.433-1.674-2.828.457-.426 1.095-1.277 1.095-2.464 0-2.098-1.612-3.04-2.92-3.558-1.064-.395-3.071-.547-4.835-.547-2.89 0-5.505.213-6.752.213-1.49 0-1.307-.76-.76-1.46.335-.396 4.562-5.961 5.353-6.965.547-.73 1.186-1.43 1.672-1.155.517.273.305 1.55-.243 2.95-.821 2.19-1.977 3.588-2.25 4.075l1.946 1.186c.76-.943 3.224-5.048 3.224-7.694 0-1.186-.457-2.19-1.338-2.738-.882-.517-2.008-.486-3.011.122a7.098 7.098 0 00-1.916 1.703c-1.52 1.947-4.745 6.022-5.93 7.543-1.704 2.22-.913 4.957 2.706 4.957 1.277 0 5.444-.304 7.056-.304 1.855 0 2.767.09 3.406.182 1.216.183 1.916.73 1.916 1.46 0 .517-.243.882-.67 1.186-.425.304-.82.76-.82 1.399 0 .76.7 1.064 1.155 1.369.609.395.974.669.974 1.307 0 .578-.426.913-.913 1.278-.395.304-.912.638-.912 1.338 0 .638.456.943.76 1.186s.639.517.639 1.034-.244.76-.852 1.125c-.486.274-1.186.79-1.186 1.52 0 .822.578 1.187 1.277 1.37 1.673.395 6.66 1.46 8.364 1.855.547.121 1.095.304 1.095.76s-.73.669-1.764.669c-3.589 0-13.564-.73-19.434-2.768-3.984-1.338-6.174-3.801-6.174-6.751 0-2.555 1.704-4.836 3.559-6.144L4.5 16.096C1.825 17.951 0 20.902 0 24.004c0 3.588 2.129 7.238 7.999 9.215 6.234 2.098 15.692 2.737 20.102 2.737 3.011 0 4.47-1.247 4.47-3.133-.03-1.794-1.49-2.767-3.253-3.132z" fill="#222"/></svg>