<svg width="177" height="176" fill="none" xmlns="http://www.w3.org/2000/svg"><g clip-path="url(#clip0_3_1485)"><path d="M88.023 176c48.601 0 88-39.399 88-88s-39.399-88-88-88-88 39.399-88 88 39.399 88 88 88z" fill="#FFFAE5"/><path d="M88.023 158.064c38.695 0 70.064-31.369 70.064-70.064 0-38.695-31.369-70.064-70.064-70.064-38.695 0-70.064 31.37-70.064 70.064 0 38.695 31.369 70.064 70.064 70.064z" fill="#FEF2CD"/><path d="M140.15 88c0-28.79-23.338-52.128-52.127-52.128-28.79 0-52.127 23.338-52.127 52.127 0 28.79 23.338 52.128 52.127 52.128s52.127-23.338 52.127-52.128z" fill="#FAC734"/><path d="M87.9 136.236c26.709 0 48.36-21.652 48.36-48.36 0-26.71-21.651-48.361-48.36-48.361-26.71 0-48.361 21.651-48.361 48.36s21.652 48.361 48.36 48.361z" fill="#FFF5D0" stroke="#fff" stroke-width="2.17"/><path d="M108.964 107.211c-2.052-.414-4.014-.885-5.65-1.21l-2.747-.606.325-2.802c0-.135.045-.269.045-.415a4.36 4.36 0 00-.325-1.726l-.65-1.491.885-1.39c.516-.841.74-1.783.74-2.848 0-1.12-.325-2.096-.93-2.937l-1.065-1.457.695-1.67a5.17 5.17 0 00.415-2.052c0-.975 0-3.924-4.608-5.684a15.583 15.583 0 00-4.383-.75l-4.989-.326L89.1 75.51c1.906-3.453 2.982-6.57 2.982-8.766 0-2.007-.65-3.778-2.141-4.372-5.18-2.242-8.856 1.244-11.48 5.537a155.801 155.801 0 00-6.288 11.29c-3.408 7.174-8.442 12.353-8.442 19.527 0 6.536 4.384 11.659 12.399 14.372 9.842 3.307 24.528 4.192 30.918 4.192 4.573 0 7.084-1.771 7.084-5.044 0-3.397-3.217-4.608-5.167-5.022v-.012z" fill="#FFD338"/><path d="M106.912 104.333l-9.887-2.152c.784-.561 1.625-1.727 1.625-3.173 0-1.681-.885-2.657-1.58-3.161a5.078 5.078 0 002.197-4.249c0-2.466-1.682-3.733-2.578-4.338a5.235 5.235 0 001.681-3.778c0-3.217-2.466-4.663-4.473-5.448-1.625-.606-4.708-.84-7.41-.84-4.428 0-8.441.324-10.358.324-2.276 0-1.995-1.166-1.166-2.242.516-.605 6.995-9.136 8.217-10.672.83-1.121 1.816-2.197 2.556-1.771.796.415.47 2.376-.37 4.517-1.255 3.364-3.027 5.505-3.453 6.256l2.982 1.816c1.166-1.457 4.944-7.735 4.944-11.804 0-1.817-.695-3.352-2.051-4.193a4.462 4.462 0 00-4.608.19 10.873 10.873 0 00-2.948 2.612c-2.332 2.982-7.264 9.226-9.08 11.558-2.624 3.408-1.402 7.6 4.147 7.6 1.951 0 8.34-.459 10.818-.459 2.836 0 4.238.135 5.213.28 1.872.28 2.937 1.121 2.937 2.242 0 .785-.37 1.346-1.02 1.805-.65.471-1.256 1.166-1.256 2.153 0 1.165 1.065 1.625 1.772 2.096.93.605 1.49 1.02 1.49 2.007 0 .885-.65 1.4-1.4 1.95-.606.47-1.402.986-1.402 2.051 0 .987.706 1.458 1.166 1.828.47.37.986.785.986 1.58 0 .785-.38 1.166-1.311 1.727-.74.415-1.816 1.21-1.816 2.331 0 1.256.885 1.817 1.962 2.097 2.555.605 10.201 2.242 12.813 2.847.841.191 1.681.46 1.681 1.166 0 .695-1.121 1.02-2.701 1.02-5.493 0-20.795-1.121-29.797-4.237-6.11-2.052-9.462-5.83-9.462-10.359 0-3.912 2.613-7.398 5.449-9.416l-2.556-2.612c-4.103 2.847-6.906 7.376-6.906 12.13 0 5.492 3.263 11.097 12.264 14.124 9.563 3.218 24.057 4.193 30.828 4.193 4.608 0 6.838-1.906 6.838-4.798-.033-2.747-2.275-4.238-4.977-4.798z" fill="#222"/></g><defs><clipPath id="clip0_3_1485"><path fill="#fff" transform="translate(.023)" d="M0 0h176v176H0z"/></clipPath></defs></svg>