<?xml version="1.0" encoding="utf-8"?><svg viewBox="0 0 1427 527" xmlns="http://www.w3.org/2000/svg" xmlns:xlink="http://www.w3.org/1999/xlink"><style>:root>svg{display:none}:root>svg:target{display:block}</style><svg viewBox="0 0 19 16" id="arrow-slider" xmlns="http://www.w3.org/2000/svg"><path d="M10.517 14.075l4.086-4.905H1.256a1.125 1.125 0 010-2.25h13.349l-4.088-4.905a1.126 1.126 0 111.728-1.44l5.625 6.75c.03.036.05.078.072.117.017.035.035.07.054.103.02.029.04.06.054.093.052.129.078.265.08.404v.001l.001.002v.004c0 .138-.03.273-.083.403-.012.036-.032.065-.05.094l-.029.046-.029.054a.579.579 0 01-.07.12l-5.625 6.75a1.124 1.124 0 11-1.728-1.44z"/></svg><svg viewBox="0 0 1416 527" id="become-bg" xmlns="http://www.w3.org/2000/svg"><g clip-path="url(#ba)" stroke-width="2"><path d="M714.392 526.487c393.288 0 712.108-117.743 712.108-262.987C1426.5 118.256 1107.68.513 714.392.513 321.103.513 2.28 118.256 2.28 263.5c0 145.244 318.823 262.987 712.112 262.987z"/><path d="M714.392 493.678c344.218 0 623.268-103.054 623.268-230.178S1058.61 33.322 714.392 33.322C370.168 33.322 91.12 136.376 91.12 263.5s279.048 230.178 623.272 230.178z"/><path d="M714.392 460.868c295.158 0 534.428-88.365 534.428-197.368 0-109.004-239.27-197.37-534.428-197.37S179.961 154.497 179.961 263.5s239.273 197.368 534.431 197.368z"/><path d="M714.392 428.059c246.092 0 445.588-73.676 445.588-164.559 0-90.884-199.496-164.56-445.588-164.56-246.093 0-445.591 73.676-445.591 164.56 0 90.883 199.498 164.559 445.591 164.559z"/><path d="M714.392 395.25c197.027 0 356.748-58.986 356.748-131.75 0-72.764-159.721-131.75-356.748-131.75-197.028 0-356.75 58.986-356.75 131.75 0 72.764 159.722 131.75 356.75 131.75z"/><path d="M714.392 362.441c147.962 0 267.909-44.297 267.909-98.941 0-54.643-119.947-98.94-267.909-98.94-147.963 0-267.91 44.297-267.91 98.94 0 54.644 119.947 98.941 267.91 98.941z"/><path d="M714.392 329.632c98.897 0 179.069-29.608 179.069-66.132 0-36.523-80.172-66.131-179.069-66.131-98.897 0-179.069 29.608-179.069 66.131 0 36.524 80.172 66.132 179.069 66.132z"/><path d="M714.392 296.822c49.831 0 90.228-14.919 90.228-33.322 0-18.404-40.397-33.322-90.228-33.322-49.832 0-90.229 14.918-90.229 33.322 0 18.403 40.397 33.322 90.229 33.322z"/></g><defs><clipPath id="ba"><path transform="translate(.892)" d="M0 0h1427v527H0z"/></clipPath></defs></svg><svg viewBox="0 0 24 9" id="btn-arrow" xmlns="http://www.w3.org/2000/svg"><path d="M19.631 8.25l3.75-3.75-3.75-3.75m3.75 3.75H.881h22.5z"/></svg><svg viewBox="0 0 28 32" id="chat" xmlns="http://www.w3.org/2000/svg"><g clip-path="url(#da)"><path d="M28 32s-4.714-1.855-8.527-3.34H3.437C1.54 28.66 0 27.026 0 25.013V3.644C0 1.633 1.54 0 3.437 0h21.125c1.898 0 3.437 1.632 3.437 3.645v18.404H28V32zm-4.139-11.982a.88.88 0 00-1.292-.105c-.03.026-3.015 2.681-8.57 2.681-5.486 0-8.517-2.636-8.571-2.684a.881.881 0 00-1.29.107 1.01 1.01 0 00.099 1.372c.142.128 3.537 3.15 9.762 3.15 6.226 0 9.621-3.022 9.763-3.15.187-.172.3-.41.317-.664a1.01 1.01 0 00-.218-.707z"/></g><defs><clipPath id="da"><path d="M0 0h28v32H0z"/></clipPath></defs></svg><svg viewBox="0 0 1427 53" id="decor-2" xmlns="http://www.w3.org/2000/svg"><path fill-rule="evenodd" clip-rule="evenodd" d="M1427 16.71v35.517H0V13.51c19.869 2.15 43.365 5.828 71.003 11.578C215.12 55.072 442.281 31.68 623.173 7.467c127.072-17.013 249.259-.991 383.457 16.6 56.82 7.448 115.79 15.179 178.21 20.8 97.28 8.763 180.82-7.161 242.16-28.158z"/></svg><svg viewBox="0 0 413 52" id="decor-3" xmlns="http://www.w3.org/2000/svg"><path fill-rule="evenodd" clip-rule="evenodd" d="M203.372.374c-.113.187-2.147.561-4.52.832-3.773.416-8.891 2.08-11.241 3.66-.407.27-1.288.604-1.977.75-2.215.436-4.181 1.476-4.52 2.391-.226.583-.576.52-1.073-.187-.418-.582-.859-.707-1.017-.27-.237.686-4.915 2.308-5.807 2.017-.181-.041-.565.416-.859 1.04-.339.687-1.265.999-2.485.79-1.051-.207-2.068.063-2.237.541-.181.5-.848.895-1.503.895-.644 0-1.311.395-1.48.873-.17.479-.486.687-.678.458-.215-.208-2.147.375-4.293 1.29-2.147.936-4.565 1.872-5.39 2.142-.813.229-2.937 1.02-4.7 1.706-1.762.707-3.988 1.497-4.937 1.768-.949.25-3.502 1.123-5.672 1.913-2.293.853-5.988 1.456-8.767 1.415-2.768-.021-4.903.312-5.016.81-.136.52-.373.48-.622-.145-.26-.624-1.92-.977-4.361-.956-3.48.02-10.733-1.83-17.523-4.514-1.221-.479-2.712-.998-3.31-1.165-3.48-.998-9.367-3.411-9.841-4.035-.78-.628-1.614-.994-2.463-1.082-1.051-.166-3.254-.707-4.881-1.165-3.774-1.081-12.96-1.206-13.332-.166-.147.416-.633.54-1.085.25-.599-.416-.689-.23-.384.665.34.978.283 1.02-.282.23-.543-.729-1.797-.666-5.152.27a26.012 26.012 0 00-5.435 1.996c-.542.416-1.988.978-3.208 1.27-3.642 1.135-7.22 2.882-10.688 5.22-.86.666-1.797 1.186-2.08 1.186-.282 0-2.214 1.352-4.293 2.995-2.101 1.643-4.18 2.974-4.666 2.974-.463 0-1.423.77-2.113 1.706-.677.936-1.57 1.705-1.954 1.705-.384 0-.87.291-1.073.645-.204.354-.52.666-.7.687-1.809.228-4.317 3.182-3.842 4.513.147.416-.226.582-.825.374-1.243-.415-2.452.375-6.079 3.953-1.335 1.393-2.82 2.23-4.35 2.454-1.016 0-2.214.582-2.666 1.29-.904 1.393-4.26 2.225-4.847 1.206-.192-.333-.757-.624-1.254-.624-1.186 0-1.209 3.12-.045 4.118 1.582 1.373 5.92 1.186 7.242-.29.407-.476.862-.795 1.338-.938a1.997 1.997 0 011.43.105c1.447.562 5.062-2.038 15.456-11.149.632-.598 1.31-1.012 2.011-1.227.34 0 1.752-.957 3.164-2.121.973-.898 1.99-1.622 3.039-2.164.474 0 1.469-.665 6.327-4.326 1.435-1.082 2.994-2.06 3.457-2.163 1.695-.416 4.35-1.83 6.282-3.35 1.085-.852 2.305-1.622 2.712-1.705.406-.083.858-.208.994-.332.135-.084 1.243-.313 2.463-.458 1.22-.166 3.446-.895 4.937-1.622 4.949-2.413 18.314-3.037 21.286-.978.43.291.983.457 1.231.374.238-.104.78.042 1.187.312.406.292 1.514.687 2.463.916 3.05.707 5.163 1.56 6.123 2.454.52.478 1.955 1.04 3.209 1.269 1.243.208 2.531.79 2.858 1.248.317.437.87.707 1.232.582.361-.145 1.649.208 2.87.728 6.507 2.912 19.41 4.971 23.827 3.827 1.695-.416 2.836-.416 2.836.042 0 .437.701.52 1.605.166.881-.353 1.943-.603 2.35-.561.745.083 6.779-1.623 11.84-3.328a266.929 266.929 0 0027.5-11.378c1.186-.416 1.514-.936 1.311-2.018-.204-1.123-.159-1.185.225-.25.351.854 1.006 1.02 2.396.563l3.141-1.02c.677-.208 2.451-.915 3.954-1.56 1.48-.665 5.039-1.83 7.886-2.6 2.859-.77 5.525-1.622 5.932-1.872.406-.27 2.067-.665 3.694-.873 1.638-.208 3.141-.832 3.344-1.373.226-.624.497-.687.735-.125.644 1.456 1.604 1.352 1.638-.208.034-1.186.113-1.248.328-.208.418 1.893 1.209 2.538 2.124 1.664.656-.419 1.353-.582 2.045-.478.693.104 1.366.472 1.977 1.081 1.039 1.352 3.966 3.474 5.717 4.098.881.333 1.604.936 1.604 1.373 0 .416.667.79 1.469.79.825 0 1.491.374 1.491.832 0 1.144 4.791 3.432 9.039 4.306 1.954.416 4.44 1.04 5.536 1.393 2.847.978 10.033.77 10.654-.29.373-.646 1.198-.563 2.825.29 1.412.728 2.372.874 2.463.354.101-.52.598-.54 1.321-.063.834.452 1.72.452 2.554 0 .779-.436 4.745-1.372 8.812-2.1 4.068-.728 7.954-1.519 8.632-1.79a18.71 18.71 0 012.474-.748 68.9 68.9 0 003.706-.957c1.356-.395 2.768-.624 3.13-.478.373.125 1.039-.042 1.48-.354.452-.332 2.553-.707 4.666-.832 2.124-.166 4.135-.665 4.463-1.164.35-.5 1.333-.625 2.316-.25.949.333 2.712.416 3.943.166 1.22-.25 3.152-.208 4.293.042 1.141.291 1.955.166 1.808-.229-.136-.416.644-.624 1.751-.5 1.107.126 2.023.5 2.023.833 0 .312 1.536.832 3.423 1.165 2.203.374 3.514.998 3.683 1.747.147.665.61 1.186 1.04 1.186.655 0 3.344 2.745 4.191 4.284 1.605 2.912 12.123 10.754 15.366 11.482l4.383.977c.949.209 1.503.084 1.243-.29-.282-.375-.497-1.415-.497-2.351 0-1.331-.373-1.664-1.887-1.768-1.152-.083-1.627.145-1.231.582.452.5.474.708.056.728-.327 0-.723-.374-.904-.852-.44-1.248-3.502-3.328-5.389-3.661-.904-.167-2.711-1.519-4.022-3.037-1.094-1.313-2.265-2.395-3.491-3.224-.599-.25-1.209-.998-1.356-1.664a2.254 2.254 0 00-.373-.838c-.163-.213-.354-.34-.553-.368-.362 0-1.096-.687-1.616-1.54-.949-1.497-3.502-3.494-7.378-5.74-2.259-1.31-18.02-2.226-21.703-1.249-1.288.333-2.542 1.144-2.78 1.79-.327.873-.44.914-.452.103 0-.832-1.084-.957-4.813-.52-2.643.312-5.197.915-5.683 1.331-.474.416-2.248.957-3.954 1.186-3.887.54-6.293 1.123-6.79 1.664-.226.208-2.249.624-4.52.853-2.259.25-5.784.832-7.818 1.269-2.034.478-4.293.645-5.028.416-.734-.23-1.434-.125-1.559.25-.135.353-1.536.56-3.118.436l-8.813-.54c-5.603-.333-6.891-.646-8.631-2.205-.407-.354-1.966-1.144-3.458-1.727-1.641-.694-3.233-1.734-4.745-3.1-1.13-1.102-2.146-1.809-2.293-1.56-.147.25-1.096-.145-2.102-.873-.935-.701-1.921-1.15-2.926-1.33-.588 0-1.311-.417-1.616-.937-.726-.753-1.539-1.18-2.372-1.248-.718-.047-1.427-.3-2.102-.749-.135-.229-.655-.041-1.163.416-.656.624-.927.583-.927-.125 0-.748-.169-.748-.7 0-.475.687-.791.728-1.017.125-.294-.832-3.796-1.31-4.248-.561zm-29.748 12.813c0 .665-.305.998-.701.728-.565-.396-.587-.604-.034-1.186.362-.416.678-.728.689-.728.023 0 .046.52.046 1.186zm-2.305.499c0 .457-.091.832-.226.832-.113 0-.339-.375-.509-.832-.169-.479-.079-.853.215-.853.282 0 .52.374.52.832v.02zm-2.226.832c-.158.499-.565.873-.893.852-.339 0-.282-.332.159-.831.949-1.061 1.118-1.061.745 0l-.011-.021zm232.313 1.518c-.949.208-2.011.749-2.35 1.248-.418.582-.825.582-1.243.02-.339-.477-1.039-.56-1.593-.165-.542.374-1.808.727-2.813.748-1.006.042-1.966.479-2.147.978-.181.5-.632.707-1.005.458-.757-.5-6.61 1.081-7.367 1.996-.942.515-1.921.76-2.903.728-1.322.084-2.667.52-2.983.957-.316.458-1.006.707-1.537.562-.828-.07-1.657.12-2.451.561-1.695.916-2.158.999-10.869 2.247-3.525.499-7.864.81-9.626.686-3.661-.229-4.915.458-4.678 2.62l.204 2.018c.045.666 12.767.313 16.326-.457 6.451-1.415 9.682-2.496 10.654-3.599.587-.665 2.079-1.102 3.457-1.019 1.333.104 3.536-.27 4.892-.81 2.486-.979 6.497-2.351 10.62-3.62a45.578 45.578 0 004.328-1.623c1.163-.499 4.632-1.04 7.739-1.143 5.581-.209 6.847-.708 5.897-2.35-.531-.916-7.682-1.603-10.552-1.04z"/></svg><svg viewBox="0 0 264 30" id="decor-4" xmlns="http://www.w3.org/2000/svg"><g clip-path="url(#ga)"><path fill-rule="evenodd" clip-rule="evenodd" d="M250.781.572c0 .382-.157.682-.354.682-.197 0-.364-.232-.364-.546 0-.34-1.554-.504-4.328-.45-2.901.055-4.328.273-4.328.682 0 .327-.157.245-.334-.177-.236-.532-.472-.6-.807-.232-.265.286-1.613.6-3.009.682-1.377.095-2.597.313-2.705.504-.099.191-1.554.41-3.246.491-1.682.068-3.305.273-3.6.437-.295.163-1.436.381-2.528.477-1.082.095-2.468.286-3.068.409-1.692.382-4.505.9-6.649 1.227-1.082.164-2.086.41-2.223.546-.148.122-1.181.34-2.302.477a7.344 7.344 0 00-2.4.586c-.196.191-1.121.437-2.046.546-.934.136-2.095.368-2.586.545-.492.177-1.476.41-2.164.505-4.092.613-5.292.845-5.774 1.132-.295.177-.669.381-.816.436-.148.068-.305.177-.354.245-.05.069-.748.178-1.545.246-.786.082-2.419.327-3.609.559-1.181.232-2.803.477-3.6.545-2.587.205-6.098.846-6.452 1.187-.197.177-3.079.272-6.413.204-4.702-.082-6.069.055-6.069.573 0 .545-.069.545-.295 0-.295-.682-5.311-1.077-5.724-.45-.099.136-.561.054-1.033-.218-.551-.3-.935-.273-1.082.095-.167.382-.344.341-.531-.122-.227-.519-.413-.546-.797-.069-.334.41-.62.45-.866.082-.432-.627-1.603-.913-6.442-1.554a65.483 65.483 0 01-6.846-1.364c-1.79-.477-3.737-.955-4.327-1.077a44.805 44.805 0 01-5.233-1.296c-1.092-.327-2.951-.682-4.151-.79a10.276 10.276 0 01-2.734-.519c-.325-.19-.728-.286-.905-.218-.177.055-.728-.04-1.229-.232-.492-.19-1.633-.463-2.518-.6-.895-.136-3.089-.518-4.869-.818l-4.515-.805a5.878 5.878 0 01-1.259-.286c0-.409-2.232-.177-2.429.246-.177.381-.266.354-.276-.096 0-.45-.786-.654-2.616-.654-1.436 0-3.521-.191-4.623-.437-2.213-.477-7.318-.382-7.898.137-.206.19-.374.095-.374-.232 0-.355-.364-.423-.983-.191-.551.204-1.328.313-1.721.245-1.023-.19-.758-.19-8.292.164-7.101.327-7.574.395-10.278 1.254-.895.287-1.87.546-2.164.546-2.754.136-7.692 1.036-13.347 2.454-.492.137-2.017.491-3.394.819-1.367.327-2.783.818-3.147 1.118-.374.3-.679.34-.679.109 0-.232-.157-.055-.354.382-.256.586-.354.613-.354.095 0-.682-1.446-.709-1.81-.013-.098.177-1.082.477-2.164.64-2.104.314-8.832 2.25-9.294 2.66-.148.136-1.17.395-2.263.572-1.101.178-2.478.518-3.068.764-.59.245-1.27.34-1.515.218-.246-.136-.453.041-.453.368 0 .341-.167.464-.373.273-.207-.19-.57-.11-.817.177-.236.273-1.082.655-1.868.818a19.61 19.61 0 00-2.705.764l-1.535.573-1.377.422c-.62.191-1.2.641-1.298 1.01-.098.409-.55.586-1.053.45-.836-.01-1.66.28-2.39.845-.826.586-1.839 1.077-2.252 1.091-.983 0-1.997 1.023-1.377 1.39.256.15.453.505.453.778 0 .314-.237.327-.63.027-.787-.586-2.44-.272-3.462.682-.423.382-1.25.86-1.83 1.064-.58.204-2.085 1.077-3.334 1.936C.313 27.763.165 27.967.578 28.95c.246.573.561 1.05.699 1.05.55 0 2.095-1.255 2.095-1.718 0-.26.167-.314.374-.136.206.19.62.054.905-.287.295-.354.52-.504.52-.327s.857-.177 1.9-.777a63.558 63.558 0 014.78-2.414l4.504-2.046c.885-.409 2.36-.9 3.246-1.09a19.139 19.139 0 003.069-1.05 17.988 17.988 0 012.773-1.023c1.092-.273 1.358-.6 1.476-1.787l.147-1.445.06 1.391.048 1.39 2.617-.722 5.508-1.554c1.574-.45 3.364-.914 3.964-1.037 1.554-.313 4.445-1.173 6.167-1.813 1.495-.56 3.403-1.05 5.37-1.364.59-.095 2.134-.464 3.423-.818 1.288-.355 2.587-.641 2.892-.641.295 0 2.4-.423 4.681-.955 3.846-.913 4.918-1.118 9.384-1.854l3.059-.518c1.82-.3 8.724-.914 11.41-1.01 1.455-.054 1.976-.272 1.848-.736-.098-.368.01-.668.236-.668.217 0 .394.205.394.45 0 .477.059.49 2.616.955 1.22.218 1.712.109 1.712-.355 0-.436.147-.477.452-.136.246.272 3.374.545 6.944.613 7.416.137 8.872.246 9.393.723.207.19.856.273 1.436.164.58-.082 1.426.04 1.869.3.462.245 1.603.572 2.538.709 2.645.409 9.796 1.772 16.681 3.177.492.095 1.869.436 3.069.764 4.672 1.24 6.846 1.54 7.298 1.022.305-.368.452-.34.452.069 0 .327.414.586.905.586.492 0 1.24.3 1.633.682.59.532.787.518 1.033-.068.177-.423.364-.505.442-.178.079.3.866.682 1.761.86l4.328.858c9.836 1.95 29.31 1.664 38.231-.545a51.868 51.868 0 014.141-.818c1.19-.177 3.148-.655 4.328-1.05a52.779 52.779 0 015.567-1.35 231.555 231.555 0 008.321-1.678c1.682-.34 3.148-.763 3.246-.927.098-.163.983-.327 1.987-.368.983-.04 3.747-.49 6.127-1.009 2.381-.518 4.613-.955 4.958-.982.344-.013.629-.327.629-.682.007-.2.047-.395.115-.572.068-.177.163-.33.279-.45.275-.246.334 0 .177.695-.217.996-.128 1.036 1.367.627.875-.231 3.275-.572 5.331-.736 2.055-.164 4.711-.436 5.901-.586 4.466-.6 8.577-.791 15.108-.71l2.852.041 1.348-2.318c.747-1.254 1.328-2.345 1.278-2.413-.206-.341-5.311-.45-5.458-.11-.099.232-.571.314-1.063.178-.491-.137-2.183-.3-3.777-.382-2.183-.123-2.901.014-2.901.545V.572zm-108.872 12c-.354.532-.394.477-.197-.287.128-.531.334-.818.443-.654.118.163 0 .586-.246.954v-.013z"/></g><defs><clipPath id="ga"><path transform="translate(.392)" d="M0 0h263.599v30H0z"/></clipPath></defs></svg><svg viewBox="0 0 32 32" id="inst" xmlns="http://www.w3.org/2000/svg"><path d="M16 4c-3.26 0-3.66 0-4.94.08-1.28.06-2.16.26-2.92.54-.8.32-1.46.72-2.12 1.4-.68.66-1.08 1.34-1.4 2.12-.28.76-.48 1.64-.54 2.92C4 12.34 4 12.74 4 16c0 3.26 0 3.66.08 4.94.06 1.28.26 2.16.54 2.92.32.8.72 1.46 1.4 2.12.66.68 1.34 1.08 2.12 1.4.76.28 1.64.48 2.92.54 1.28.06 1.68.08 4.94.08 3.26 0 3.66 0 4.94-.08a8.88 8.88 0 002.92-.56c.8-.3 1.46-.7 2.12-1.38.68-.66 1.08-1.32 1.4-2.12.28-.76.48-1.64.54-2.92.08-1.28.08-1.68.08-4.94 0-3.26 0-3.66-.08-4.94a8.88 8.88 0 00-.56-2.92c-.3-.8-.7-1.46-1.38-2.12a5.84 5.84 0 00-2.12-1.4 8.82 8.82 0 00-2.92-.54C19.66 4 19.26 4 16 4zm0 2.16c3.2 0 3.6 0 4.86.08 1.16.04 1.8.24 2.2.4.58.22.98.48 1.4.9.4.42.68.82.9 1.4.16.4.36 1.04.4 2.2.06 1.28.08 1.66.08 4.86s0 3.6-.08 4.86c-.06 1.16-.26 1.8-.4 2.2a3.8 3.8 0 01-.92 1.4c-.4.4-.82.68-1.38.9-.4.16-1.06.36-2.24.4-1.26.06-1.64.08-4.84.08-3.22 0-3.6 0-4.86-.08a6.8 6.8 0 01-2.24-.4 3.72 3.72 0 01-1.4-.92 3.64 3.64 0 01-.88-1.38 6.8 6.8 0 01-.42-2.24c-.04-1.26-.06-1.64-.06-4.84s0-3.6.06-4.86c.06-1.16.26-1.8.4-2.22.22-.58.5-.98.92-1.4.4-.4.8-.68 1.38-.88.4-.18 1.04-.38 2.2-.42 1.3-.06 1.66-.08 4.88-.08l.04.04zm0 3.68a6.16 6.16 0 100 12.32 6.16 6.16 0 000-12.32zM16 20a4 4 0 110-8 4 4 0 010 8zm7.84-10.4a1.44 1.44 0 11-2.88 0 1.44 1.44 0 012.88 0z"/></svg><svg viewBox="0 0 35 39" id="logo" xmlns="http://www.w3.org/2000/svg"><path d="M30.655 31.576c-1.338-.274-2.615-.578-3.68-.79l-1.794-.396.213-1.825c0-.09.03-.182.03-.273 0-.396-.06-.76-.212-1.126l-.426-.973.578-.912c.334-.548.486-1.156.486-1.855 0-.73-.213-1.369-.608-1.916l-.7-.943.457-1.095c.182-.426.274-.882.274-1.338 0-.639 0-2.555-3.011-3.71-.426-.153-1.278-.396-2.86-.487l-3.253-.213 1.55-2.828c1.248-2.25 1.947-4.289 1.947-5.718 0-1.308-.426-2.463-1.399-2.859-3.376-1.46-5.778.821-7.481 3.62-1.369 2.28-3.072 5.2-4.106 7.36-2.22 4.683-5.505 8.059-5.505 12.742 0 4.258 2.86 7.603 8.09 9.367 6.417 2.16 15.997 2.737 20.164 2.737 2.98 0 4.622-1.155 4.622-3.284 0-2.22-2.098-3.011-3.375-3.285z"/><path d="M29.318 29.69c-3.467-.76-6.448-1.398-6.448-1.398.517-.365 1.065-1.125 1.065-2.068a2.472 2.472 0 00-1.034-2.068c.608-.456 1.43-1.278 1.43-2.768 0-1.612-1.096-2.433-1.674-2.828.457-.426 1.095-1.277 1.095-2.464 0-2.098-1.612-3.04-2.92-3.558-1.064-.395-3.071-.547-4.835-.547-2.89 0-5.505.213-6.752.213-1.49 0-1.307-.76-.76-1.46.335-.396 4.562-5.961 5.353-6.965.547-.73 1.186-1.43 1.672-1.155.517.273.305 1.55-.243 2.95-.821 2.19-1.977 3.588-2.25 4.075l1.946 1.186c.76-.943 3.224-5.048 3.224-7.694 0-1.186-.457-2.19-1.338-2.738-.882-.517-2.008-.486-3.011.122a7.098 7.098 0 00-1.916 1.703c-1.52 1.947-4.745 6.022-5.93 7.543-1.704 2.22-.913 4.957 2.706 4.957 1.277 0 5.444-.304 7.056-.304 1.855 0 2.767.09 3.406.182 1.216.183 1.916.73 1.916 1.46 0 .517-.243.882-.67 1.186-.425.304-.82.76-.82 1.399 0 .76.7 1.064 1.155 1.369.609.395.974.669.974 1.307 0 .578-.426.913-.913 1.278-.395.304-.912.638-.912 1.338 0 .638.456.943.76 1.186s.639.517.639 1.034-.244.76-.852 1.125c-.486.274-1.186.79-1.186 1.52 0 .822.578 1.187 1.277 1.37 1.673.395 6.66 1.46 8.364 1.855.547.121 1.095.304 1.095.76s-.73.669-1.764.669c-3.589 0-13.564-.73-19.434-2.768-3.984-1.338-6.174-3.801-6.174-6.751 0-2.555 1.704-4.836 3.559-6.144L4.5 16.096C1.825 17.951 0 20.902 0 24.004c0 3.588 2.129 7.238 7.999 9.215 6.234 2.098 15.692 2.737 20.102 2.737 3.011 0 4.47-1.247 4.47-3.133-.03-1.794-1.49-2.767-3.253-3.132z"/></svg><svg viewBox="0 0 177 176" id="logo-2" xmlns="http://www.w3.org/2000/svg"><g clip-path="url(#ja)"><path d="M88.023 176c48.601 0 88-39.399 88-88s-39.399-88-88-88-88 39.399-88 88 39.399 88 88 88z"/><path d="M88.023 158.064c38.695 0 70.064-31.369 70.064-70.064 0-38.695-31.369-70.064-70.064-70.064-38.695 0-70.064 31.37-70.064 70.064 0 38.695 31.369 70.064 70.064 70.064z"/><path d="M140.15 88c0-28.79-23.338-52.128-52.127-52.128-28.79 0-52.127 23.338-52.127 52.127 0 28.79 23.338 52.128 52.127 52.128s52.127-23.338 52.127-52.128z"/><path d="M87.9 136.236c26.709 0 48.36-21.652 48.36-48.36 0-26.71-21.651-48.361-48.36-48.361-26.71 0-48.361 21.651-48.361 48.36s21.652 48.361 48.36 48.361z"/><path d="M108.964 107.211c-2.052-.414-4.014-.885-5.65-1.21l-2.747-.606.325-2.802c0-.135.045-.269.045-.415a4.36 4.36 0 00-.325-1.726l-.65-1.491.885-1.39c.516-.841.74-1.783.74-2.848 0-1.12-.325-2.096-.93-2.937l-1.065-1.457.695-1.67a5.17 5.17 0 00.415-2.052c0-.975 0-3.924-4.608-5.684a15.583 15.583 0 00-4.383-.75l-4.989-.326L89.1 75.51c1.906-3.453 2.982-6.57 2.982-8.766 0-2.007-.65-3.778-2.141-4.372-5.18-2.242-8.856 1.244-11.48 5.537a155.801 155.801 0 00-6.288 11.29c-3.408 7.174-8.442 12.353-8.442 19.527 0 6.536 4.384 11.659 12.399 14.372 9.842 3.307 24.528 4.192 30.918 4.192 4.573 0 7.084-1.771 7.084-5.044 0-3.397-3.217-4.608-5.167-5.022v-.012z"/><path d="M106.912 104.333l-9.887-2.152c.784-.561 1.625-1.727 1.625-3.173 0-1.681-.885-2.657-1.58-3.161a5.078 5.078 0 002.197-4.249c0-2.466-1.682-3.733-2.578-4.338a5.235 5.235 0 001.681-3.778c0-3.217-2.466-4.663-4.473-5.448-1.625-.606-4.708-.84-7.41-.84-4.428 0-8.441.324-10.358.324-2.276 0-1.995-1.166-1.166-2.242.516-.605 6.995-9.136 8.217-10.672.83-1.121 1.816-2.197 2.556-1.771.796.415.47 2.376-.37 4.517-1.255 3.364-3.027 5.505-3.453 6.256l2.982 1.816c1.166-1.457 4.944-7.735 4.944-11.804 0-1.817-.695-3.352-2.051-4.193a4.462 4.462 0 00-4.608.19 10.873 10.873 0 00-2.948 2.612c-2.332 2.982-7.264 9.226-9.08 11.558-2.624 3.408-1.402 7.6 4.147 7.6 1.951 0 8.34-.459 10.818-.459 2.836 0 4.238.135 5.213.28 1.872.28 2.937 1.121 2.937 2.242 0 .785-.37 1.346-1.02 1.805-.65.471-1.256 1.166-1.256 2.153 0 1.165 1.065 1.625 1.772 2.096.93.605 1.49 1.02 1.49 2.007 0 .885-.65 1.4-1.4 1.95-.606.47-1.402.986-1.402 2.051 0 .987.706 1.458 1.166 1.828.47.37.986.785.986 1.58 0 .785-.38 1.166-1.311 1.727-.74.415-1.816 1.21-1.816 2.331 0 1.256.885 1.817 1.962 2.097 2.555.605 10.201 2.242 12.813 2.847.841.191 1.681.46 1.681 1.166 0 .695-1.121 1.02-2.701 1.02-5.493 0-20.795-1.121-29.797-4.237-6.11-2.052-9.462-5.83-9.462-10.359 0-3.912 2.613-7.398 5.449-9.416l-2.556-2.612c-4.103 2.847-6.906 7.376-6.906 12.13 0 5.492 3.263 11.097 12.264 14.124 9.563 3.218 24.057 4.193 30.828 4.193 4.608 0 6.838-1.906 6.838-4.798-.033-2.747-2.275-4.238-4.977-4.798z"/></g><defs><clipPath id="ja"><path transform="translate(.023)" d="M0 0h176v176H0z"/></clipPath></defs></svg><svg viewBox="0 0 142 142" id="logo-bg-2:1" xmlns="http://www.w3.org/2000/svg"><path d="M71.023 141.064c38.695 0 70.064-31.369 70.064-70.064 0-38.695-31.369-70.063-70.064-70.063C32.328.937.959 32.305.959 71c0 38.695 31.369 70.064 70.064 70.064z"/></svg><svg viewBox="0 0 177 176" id="logo-bg-2:2" xmlns="http://www.w3.org/2000/svg"><path d="M88.023 176c48.601 0 88-39.399 88-88s-39.399-88-88-88-88 39.399-88 88 39.399 88 88 88z"/></svg><svg viewBox="0 0 21 24" id="play" xmlns="http://www.w3.org/2000/svg"><path fill-rule="evenodd" clip-rule="evenodd" d="M19.731 10.32a1.93 1.93 0 010 3.35L3.791 22.9a1.93 1.93 0 01-2.9-1.68V2.8a1.93 1.93 0 012.9-1.68l15.96 9.21-.02-.01z"/></svg><svg viewBox="0 0 32 32" id="twit" xmlns="http://www.w3.org/2000/svg"><path fill-rule="evenodd" clip-rule="evenodd" d="M26.02 12.72c0 7.12-5.6 14.6-15.26 14.6-2.233 0-4.437-.513-6.44-1.5-.52-.24-.38-1 .2-1.12 2.52-.4 4.8-1.4 5.94-3.06C3.78 17.76 3.9 11 4.26 8.24c.08-.5.68-.7 1-.34 2.52 2.92 5.6 5.02 10.06 4.72-.4-1.88.16-3.84 1.52-5.16a5.16 5.16 0 017.44.24c.52.6 1.7 1.04 2.88.5.46-.2.94.2.82.68-.44 1.84-1.32 2.96-1.74 3.5-.14.18-.22.28-.22.34z"/></svg></svg>