<svg width="94" height="71" fill="none" xmlns="http://www.w3.org/2000/svg"><path fill-rule="evenodd" clip-rule="evenodd" d="M1.625 12.1a26.87 26.87 0 01-.36-4.53c0-1.36.62-2.48 1.98-2.98 1.15-.4 2.73.43 3.32 1.92.8 2 1.58 4.04 2.04 6.13 1.4 6.31 2.67 12.68 3.91 19.03.4 2.1.68 4.25.9 6.4.06.75.01 1.55-.24 2.22-.66 1.86-2.67 2.26-3.9.77a8.27 8.27 0 01-1.46-3c-1.08-3.42-5.22-20.73-6.2-25.96h.01zm37.62 33.38l.04 1.42c.33 1.23 1.06 1.43 1.8 1.64l.24.06c1.26.36 2.18-.51 2.63-1.69.41-1.04.78-2.13 1.08-3.23l.61-2.15c.74-2.58 1.48-5.17 2.16-7.75 2.3-8.85 4.51-17.71 6.7-26.6.33-1.34.44-2.8.3-4.15-.05-.71-.78-1.8-1.41-1.96-.85-.2-2.16.08-2.7.65-1.01 1.07-1.8 2.47-2.34 3.87-4.66 12-8.28 24.27-9.11 37.2-.06.86-.03 1.73 0 2.69zm47.06 24.14l1.62-.18c.44-.15.85-.27 1.24-.39.68-.2 1.3-.37 1.82-.66 2.13-1.2 2.05-3.72-.15-4.75a6.86 6.86 0 00-2.94-.6c-8.85.02-17.73.09-26.6.21-1.34.03-2.77.38-4.08.77-1.94.55-2.82 1.71-2.72 3.17.09 1.47 1.02 2.57 2.95 3.01 1.45.34 3 .56 4.5.52 6.96-.21 13.92-.5 20.89-.77 1.18-.05 2.36-.2 3.47-.33z" fill="#FFD338"/></svg>