<svg width="587" height="31" fill="none" xmlns="http://www.w3.org/2000/svg"><path fill-rule="evenodd" clip-rule="evenodd" d="M234.642.145c-.158.126-2.273.223-4.716.223-2.432 0-4.632.261-4.887.58-.243.32-1.264.582-2.261.582-.985 0-2.03.184-2.31.407-.292.222-2.589.494-5.105.6-4.449.194-20.763 2.867-22.416 3.68-.851.407-1.617.562-8.303 1.608-2.139.33-4.279.852-4.765 1.162-.486.31-2.48.697-4.449.872-1.957.184-7.148.968-11.512 1.762a92.343 92.343 0 01-17.262 1.472l-9.299.039-2.213-2.14c-6.005-5.811-5.956-5.801-12.727-5.666-3.38.068-7.415.359-8.935.64-1.532.27-4.559.639-6.735.803-2.175.175-4.048.552-4.181.843-.122.29-1.556.436-3.197.31-1.8-.126-4.462.29-6.747 1.065-2.067.707-4.279 1.133-4.887.94-.608-.185-1.337-.03-1.629.338-.291.368-1.908.678-3.61.678s-3.294.271-3.574.62c-.267.349-1.361.63-2.431.63-1.058 0-1.945.222-1.945.484 0 .28-.73.542-1.641.6-3.404.194-13.615 2.925-14.004 3.739-.268.552-.73.648-1.313.261-.79-.513-9.75 1.501-15.998 3.593-2.88.968-7.11 2.101-9.129 2.44-1.094.184-2.37.582-2.844.872-.474.29-1.544.63-2.383.756-.85.125-2.237.455-3.112.726l-4.17 1.317c-1.422.455-2.589 1.055-2.589 1.346 0 .29-2.018.513-4.497.494-2.918 0-4.62.261-4.826.775-.414.968-1.872 1.046-1.593.077.11-.387-.486-.794-1.337-.9a81.262 81.262 0 01-3.477-.581c-1.616-.33-1.75-.252-.814.426C3.274 30.4 5.633 31 10.179 31c4.68 0 9.069-.997 8.364-1.908-.207-.261.158-.63.814-.833.656-.193 1.191-.067 1.191.29 0 .36.438.427.973.165.7-.302 1.468-.49 2.26-.552.706-.038 4.596-.89 8.632-1.888 5.64-1.395 7.524-2.13 8.023-3.196.936-1.927 1.92-2.237 4.327-1.366 1.678.601 2.237.582 2.735-.048.34-.445.851-.775 1.131-.746 2.456.252 5.349-.096 6.212-.755.583-.436 2.066-.862 3.306-.94a11.266 11.266 0 003.149-.561c.486-.242 1.726-.504 2.76-.59 1.032-.098 2.37-.485 2.953-.872.608-.388 2.164-.814 3.489-.94a88.817 88.817 0 0010.418-2.034 18.88 18.88 0 012.382-.484c.657-.097 4.583-.775 8.728-1.51 13.98-2.48 18.636-3.08 27.23-3.526 7.598-.397 8.728-.33 10.126.678.863.61 1.581 1.492 1.581 1.937 0 .465 1.057 1.278 2.37 1.811 1.313.533 2.383 1.23 2.383 1.55 0 .978 5.993 1.937 11.098 1.781 2.65-.077 4.802-.435 4.802-.803 0-.359.328-.262.705.222.583.727 1.58.737 6.151.068a53.34 53.34 0 006.637-1.259 27.63 27.63 0 014.899-.871c2.042-.223 5.008-.824 6.589-1.356 1.58-.514 3.16-.804 3.501-.64.851.417 6.479-.968 6.078-1.481-.17-.223 1.009-.426 2.613-.455 2.711-.039 4.875-.368 14.442-2.199a278.128 278.128 0 0116.885-2.837c2.37-.262 2.978-.6 3.002-1.676.012-1.084.158-1.162.73-.387.51.688 1.884.93 4.935.852l9.798-.252c5.567-.145 11.56.456 12.314 1.23.851.901 6.443 3.971 9.3 5.123 3.683 1.482 19.304 2.373 23.133 1.317 1.58-.435 2.516-.455 2.674-.048.17.388 1.629.271 3.829-.29 1.97-.514 5.495-.833 7.902-.727 2.394.117 4.716.02 5.166-.193.45-.233 2.067-.436 3.598-.456 6.285-.087 9.19-.348 10.333-.949 3.367-1.782-6.078-3.321-11.609-1.888-1.264.33-4.51.726-7.209.871-5.227.3-6.917.775-6.175 1.705.243.33.073.581-.389.581s-.851-.416-.851-.93c0-.997-1.216-1.288-1.872-.455-.705.9-21.079.194-25.807-.89-4.146-.96-10.491-3.681-11.099-4.785-.754-1.337-5.616-2.48-11.026-2.576-3.221-.068-5.993-.01-6.151.106v.01zm150.98 4.339c-.085.068-5.689.29-12.436.474-6.759.194-12.642.388-13.08.436a9.835 9.835 0 01-2.577-.358c-1.204-.3-1.787-.194-1.787.32 0 .425-.231.59-.499.377-.279-.213-1.179-.116-1.993.232-.997.427-1.483.417-1.483-.019 0-.94-6.139-.813-6.625.126-.316.63-.414.63-.462 0-.037-.426-.948-.775-2.042-.775-2.225 0-2.347.194-1.167 1.918.802 1.191 4.266 1.695 5.02.736.207-.262 4.376-.223 9.263.097 6.309.406 9.032.368 9.421-.117.34-.445.948-.484 1.702-.106 1.41.697 3.404.794 2.881.135-.584-.765 30.731-.338 35.788.485 4.084.658 11.013 2.837 16.957 5.326 3.659 1.54 13.457 3.36 13.457 2.518 0-1.288-2.625-2.712-5.555-3.012a33.462 33.462 0 01-6.953-1.937c-2.286-.92-5.969-2.372-8.181-3.244-5.702-2.247-13.494-3.535-22.064-3.651a115.19 115.19 0 00-7.573.039h-.012zm-59.711 1.278c.425.872.34.94-.462.31-1.374-1.065-3.064-.978-3.064.165 0 .513-.522.939-1.154.939-.62 0-1.35.262-1.605.59-.632.814 17.067.64 18.757-.183.729-.349 1.13-1.007.912-1.453-.499-1.036-4.753-1.104-5.179-.097-.231.533-.875.446-2.237-.31-1.263-.638-2.712-1.004-4.206-1.065-1.847 0-2.188.213-1.762 1.104zm-7.659.581c.584.194 1.265.165 1.532-.048.255-.204-.207-.349-1.045-.33-.924.03-1.107.184-.487.388v-.01zm198.34 3.177c-2.188.077-7.367.465-11.524.871-4.145.388-8.619.785-9.932.872-1.3.097-5.774.62-9.919 1.162-4.157.533-8.801 1.104-10.333 1.26-1.531.164-5.604.619-9.056 1.026-3.89.455-10.454.58-17.274.358-8.546-.29-11.001-.194-11.001.407 0 .435 1.094 1.278 2.431 1.879 2.103.939 4.06 1.045 14.745.794 6.783-.165 12.728-.485 13.214-.727.486-.242 2.869-.532 5.3-.649 2.431-.116 9.069-.755 14.746-1.413l16.69-1.928c8.57-.968 28.093-1.249 34.937-.484 3.789.46 7.546 1.074 11.256 1.84 3.124.659 6.698 1.327 7.938 1.462 1.24.146 3.501.562 5.033.92 3.355.804 9.518.853 11.038.097.875-.445.778-.687-.547-1.249-.9-.378-2.201-.513-2.893-.31-.693.213-2.371.03-3.708-.416-2.03-.659-2.553-.65-3.161.097-.462.552-.948.648-1.325.251-1.13-1.2-8.327-3.447-11.001-3.447-1.094 0-2.735-.31-3.623-.678-.887-.388-2.917-.775-4.522-.872a97.355 97.355 0 01-5.664-.571c-3.246-.446-16.095-.775-21.845-.552zm61.547 7.011c0 .29.547.707 1.203.901.656.194 1.191.116 1.191-.174 0-.3-.535-.707-1.191-.91-.656-.194-1.203-.117-1.203.183zm6.017.61c-.96.291-1.216.64-.669.901 1.046.504 3.404-.116 3.404-.9 0-.66-.608-.66-2.735 0z" fill="#EEE"/></svg>