<svg width="146" height="39" fill="none" xmlns="http://www.w3.org/2000/svg"><g clip-path="url(#clip0_3_1067)"><path d="M43.946 27.532c-1.642 0-3.467-.578-4.926-1.734l1.186-1.794c1.246.943 2.615 1.43 3.801 1.43 1.156 0 1.794-.487 1.794-1.248v-.03c0-.912-1.216-1.217-2.584-1.612-1.704-.487-3.62-1.186-3.62-3.406v-.03c0-2.19 1.825-3.528 4.136-3.528 1.46 0 3.042.517 4.258 1.307l-1.064 1.886c-1.126-.67-2.312-1.095-3.285-1.095-1.034 0-1.612.487-1.612 1.156v.03c0 .821 1.247 1.186 2.616 1.612 1.703.517 3.588 1.308 3.588 3.376v.03c.031 2.433-1.885 3.65-4.288 3.65zM58.028 15.7h2.646v11.588h-2.646v-1.794c-.76 1.095-1.825 2.037-3.62 2.037-2.615 0-4.136-1.764-4.136-4.47V15.7h2.646v6.6c0 1.794.913 2.828 2.494 2.828 1.551 0 2.616-1.065 2.616-2.89V15.7zM70.04 27.562c-1.915 0-3.132-.973-3.922-2.038v5.323h-2.646V15.7h2.646v1.947c.851-1.217 2.068-2.16 3.923-2.16 2.737 0 5.413 2.16 5.413 6.052 0 3.832-2.646 6.022-5.413 6.022zm-.608-9.793c-1.794 0-3.375 1.46-3.375 3.74 0 2.282 1.581 3.742 3.376 3.742 1.824 0 3.314-1.43 3.314-3.741 0-2.281-1.52-3.74-3.314-3.74zm13.564 7.634c1.308 0 2.22-.487 3.133-1.369l1.55 1.369c-1.094 1.308-2.615 2.16-4.743 2.16-3.346 0-5.961-2.434-5.961-6.053 0-3.345 2.341-6.052 5.656-6.052 3.68 0 5.566 2.89 5.566 6.265 0 .243-.03.456-.03.73H79.65c.304 1.885 1.612 2.95 3.345 2.95zm2.585-4.714c-.182-1.703-1.186-3.041-2.95-3.041-1.612 0-2.767 1.247-3.01 3.04h5.96zm7.421 6.63h-2.646V15.7h2.646v2.616c.73-1.734 2.068-2.92 4.106-2.829v2.798h-.152c-2.342 0-3.954 1.52-3.954 4.592v4.44zm12.621.243c-1.916 0-3.133-.973-3.923-2.038v5.323h-2.646V15.7h2.646v1.947c.851-1.217 2.068-2.16 3.923-2.16 2.737 0 5.413 2.16 5.413 6.052 0 3.832-2.646 6.022-5.413 6.022zm-.608-9.793c-1.795 0-3.376 1.46-3.376 3.74 0 2.282 1.581 3.742 3.376 3.742 1.824 0 3.315-1.43 3.315-3.741 0-2.281-1.521-3.74-3.315-3.74zm13.533 7.634c1.308 0 2.22-.487 3.133-1.369l1.551 1.369c-1.095 1.308-2.616 2.16-4.745 2.16-3.345 0-5.961-2.434-5.961-6.053 0-3.345 2.342-6.052 5.657-6.052 3.68 0 5.566 2.89 5.566 6.265 0 .243-.031.456-.031.73h-8.515c.334 1.885 1.642 2.95 3.345 2.95zm2.585-4.714c-.182-1.703-1.186-3.041-2.95-3.041-1.612 0-2.767 1.247-3.011 3.04h5.961zm10.128 4.714c1.308 0 2.22-.487 3.132-1.369l1.551 1.369c-1.094 1.308-2.615 2.16-4.744 2.16-3.345 0-5.961-2.434-5.961-6.053 0-3.345 2.342-6.052 5.657-6.052 3.68 0 5.565 2.89 5.565 6.265 0 .243-.03.456-.03.73h-8.515c.334 1.885 1.642 2.95 3.345 2.95zm2.585-4.714c-.182-1.703-1.186-3.041-2.95-3.041-1.612 0-2.768 1.247-3.011 3.04h5.961zm7.451 6.63h-2.646V15.7h2.646v2.616c.73-1.734 2.068-2.92 4.106-2.829v2.798h-.152c-2.342 0-3.954 1.52-3.954 4.592v4.44z" fill="#222"/><path d="M30.655 31.576c-1.338-.274-2.615-.578-3.68-.79l-1.794-.396.213-1.825c0-.09.03-.182.03-.273 0-.396-.06-.76-.212-1.126l-.426-.973.578-.912c.334-.548.486-1.156.486-1.855 0-.73-.213-1.369-.608-1.916l-.7-.943.457-1.095c.182-.426.274-.882.274-1.338 0-.639 0-2.555-3.011-3.71-.426-.153-1.278-.396-2.86-.487l-3.253-.213 1.55-2.828c1.248-2.25 1.947-4.289 1.947-5.718 0-1.308-.426-2.463-1.399-2.859-3.376-1.46-5.778.821-7.481 3.62-1.369 2.28-3.072 5.2-4.106 7.36-2.22 4.683-5.505 8.059-5.505 12.742 0 4.258 2.86 7.603 8.09 9.367 6.417 2.16 15.997 2.737 20.164 2.737 2.98 0 4.622-1.155 4.622-3.284 0-2.22-2.098-3.011-3.375-3.285z" fill="#FFD338"/><path d="M29.318 29.69c-3.467-.76-6.448-1.398-6.448-1.398.517-.365 1.065-1.125 1.065-2.068a2.472 2.472 0 00-1.034-2.068c.608-.456 1.43-1.278 1.43-2.768 0-1.612-1.096-2.433-1.674-2.828.457-.426 1.095-1.277 1.095-2.464 0-2.098-1.612-3.04-2.92-3.558-1.064-.395-3.071-.547-4.835-.547-2.89 0-5.505.213-6.752.213-1.49 0-1.307-.76-.76-1.46.335-.396 4.562-5.961 5.353-6.965.547-.73 1.186-1.43 1.672-1.155.517.273.305 1.55-.243 2.95-.821 2.19-1.977 3.588-2.25 4.075l1.946 1.186c.76-.943 3.224-5.048 3.224-7.694 0-1.186-.457-2.19-1.338-2.738-.882-.517-2.008-.486-3.011.122a7.098 7.098 0 00-1.916 1.703c-1.52 1.947-4.745 6.022-5.93 7.543-1.704 2.22-.913 4.957 2.706 4.957 1.277 0 5.444-.304 7.056-.304 1.855 0 2.767.09 3.406.182 1.216.183 1.916.73 1.916 1.46 0 .517-.243.882-.67 1.186-.425.304-.82.76-.82 1.399 0 .76.7 1.064 1.155 1.369.609.395.974.669.974 1.307 0 .578-.426.913-.913 1.278-.395.304-.912.638-.912 1.338 0 .638.456.943.76 1.186s.639.517.639 1.034-.244.76-.852 1.125c-.486.274-1.186.79-1.186 1.52 0 .822.578 1.187 1.277 1.37 1.673.395 6.66 1.46 8.364 1.855.547.121 1.095.304 1.095.76s-.73.669-1.764.669c-3.589 0-13.564-.73-19.434-2.768-3.984-1.338-6.174-3.801-6.174-6.751 0-2.555 1.704-4.836 3.559-6.144L4.5 16.096C1.825 17.951 0 20.902 0 24.004c0 3.588 2.129 7.238 7.999 9.215 6.234 2.098 15.692 2.737 20.102 2.737 3.011 0 4.47-1.247 4.47-3.133-.03-1.794-1.49-2.767-3.253-3.132z" fill="#222"/></g><defs><clipPath id="clip0_3_1067"><path fill="#fff" d="M0 0h146v39H0z"/></clipPath></defs></svg>