<svg width="24" height="24" fill="none" xmlns="http://www.w3.org/2000/svg"><g clip-path="url(#clip0_3_1084)"><path d="M20.73 19.86l-2.31-.495-1.125-.255.135-1.14v-.18c0-.24-.03-.48-.12-.705l-.27-.6.36-.6c.21-.33.3-.72.3-1.155 0-.45-.12-.87-.375-1.2l-.45-.6.3-.69c.12-.27.165-.555.165-.84 0-.405 0-1.62-1.89-2.34a6.391 6.391 0 00-1.8-.3l-2.055-.15.975-1.77c.795-1.425 1.23-2.7 1.23-3.6 0-.825-.27-1.56-.885-1.8C10.8.51 9.3 1.95 8.205 3.72 7.35 5.145 6.27 6.99 5.625 8.355c-1.395 2.94-3.465 5.07-3.465 8.025 0 2.685 1.8 4.785 5.1 5.895C11.295 23.625 17.325 24 19.95 24c1.875 0 2.91-.735 2.91-2.07 0-1.395-1.32-1.89-2.13-2.07z" fill="#FFD338"/><path d="M19.89 18.675l-4.05-.885c.315-.225.66-.705.66-1.305 0-.69-.36-1.08-.645-1.29.375-.3.9-.81.9-1.755 0-1.005-.69-1.53-1.05-1.77.285-.27.69-.81.69-1.56 0-1.32-1.02-1.92-1.845-2.25a10.5 10.5 0 00-3.045-.33c-1.815 0-3.465.135-4.26.135-.93 0-.81-.48-.48-.93.225-.24 2.88-3.75 3.375-4.38.345-.45.75-.9 1.05-.735.33.18.195.99-.15 1.86-.51 1.38-1.245 2.265-1.41 2.565l1.23.75c.465-.6 2.025-3.18 2.025-4.845 0-.75-.3-1.38-.84-1.725-.555-.315-1.275-.3-1.905.075-.42.255-.84.615-1.2 1.08L5.19 6.135c-1.05 1.395-.57 3.12 1.71 3.12.81 0 3.435-.195 4.455-.195 1.17 0 1.74.06 2.145.12.75.105 1.2.45 1.2.9 0 .345-.15.57-.42.75-.27.195-.51.495-.51.9 0 .465.435.66.72.855.39.255.615.42.615.825 0 .36-.27.57-.57.795-.255.195-.585.405-.585.855 0 .39.3.6.48.75.195.15.405.315.405.645s-.15.48-.54.705c-.3.18-.75.495-.75.96 0 .51.375.75.81.855 1.05.255 4.2.93 5.265 1.17.345.075.69.195.69.48 0 .3-.45.42-1.11.42-2.25 0-8.55-.45-12.24-1.74-2.505-.84-3.885-2.4-3.885-4.245 0-1.62 1.08-3.045 2.25-3.87l-1.05-1.08a6.254 6.254 0 00-2.85 4.98c0 2.25 1.35 4.56 5.04 5.805 3.93 1.32 9.885 1.725 12.66 1.725 1.905 0 2.82-.78 2.82-1.965-.015-1.14-.945-1.755-2.055-1.98z" fill="#222"/></g><defs><clipPath id="clip0_3_1084"><path fill="#fff" d="M0 0h24v24H0z"/></clipPath></defs></svg>